<?xml version="1.0" encoding="utf-8"?>
<!-- Generator: Adobe Illustrator 22.0.1, SVG Export Plug-In . SVG Version: 6.00 Build 0)  -->
<svg version="1.1" id="레이어_1" xmlns="http://www.w3.org/2000/svg" xmlns:xlink="http://www.w3.org/1999/xlink" x="0px"
	 y="0px" viewBox="0 0 1985.7 464.4" style="enable-background:new 0 0 1985.7 464.4;" xml:space="preserve">
<style type="text/css">
	.st0{fill:#FFFFFF;}
</style>
<path class="st0" d="M440.5,142.5c0,17.2,0.1,34.4-0.1,51.5c0,4.7,1.5,6.7,6.4,6.7c21.6-0.1,43.2-0.2,64.8,0c5.4,0,6.9-2.1,6.8-7.3
	c-0.2-16.5-0.2-32.9,0.1-49.4c0.1-4.7-0.4-10,4.9-13.1c2.2-1.3,3.9-2.3,5.6,0.7c0.5,0.9,1.3,2.5,2.8,1.6c1.2-0.7,1.1-2.2,0.8-3.4
	c-0.4-2-1.6-1.7-3.2-1.2c-4.4,1.4-6.7-2.3-9.3-4.6c-1.4-1.2,0.1-3.4,1.3-4.7c1.4-1.6,3.2-2.8,4.7-4.3c1.9-1.8,2-4.1,1.5-6.4
	c-0.5-2.4-2.6-2.2-4.3-2.3c-3.8-0.1-4.9-2-5-5.7c-0.5-15.3,0.4-16.5,15.6-16.6c4.2,0,8.5,0.1,12.7,0.2c1.2,0,2.6,0.1,3.1,1.5
	c0.5,1.4-0.5,2.3-1.3,3.3c-2.3,2.6-5.1,4.2-8.8,4.1c-2.1-0.1-4.3,0.7-4.1,3.1c0.3,2.7,2.3,1.7,4.1,1.2c2.4-0.8,3.2,0.6,3.2,2.7
	c0,3-0.2,7.2,2.2,8.1c2.7,1.1,4.7-3,7-4.8c4-3,5.3-7,5-12.1c-0.4-6.8,0.2-6.9,6.5-5.3c2.2,0.6,4.6,0.4,6.9,0.6c7,0.5,8.2,1.5,8,8.3
	c-0.5,15.2,0.2,30.4,0.2,45.6c0.1,79.2,0,158.3-0.1,237.5c0,15.5,0.7,13.4-13.4,13.6c-0.9,0-1.8-0.1-2.7,0
	c-10.4,1.7-17.7-1.9-23.3-11.2c-5.6-9.4-12.4-18.1-18.7-27c-2.4-3.5-3.4-7.2-3.4-11.5c0.1-27.6,0-55.3,0-82.9c0-7.6-0.2-7.8-7.8-7.8
	c-18.6-0.1-37.2-0.1-55.8,0c-3.6,0-6.4-0.9-8.6-4.1c-20.7-29.3-41.5-58.6-62.4-87.8c-3.1-4.3-4.6-8.6-4.4-13.8
	c0.2-4.9,0-9.9,0.1-14.9c0-2.6,0-5.1,2.7-7c2.7-1.9,0.9-4.7-0.4-6.6c-3.2-4.6-2.4-8.2,1.8-11.4c0.7-0.5,1.3-1.2,1.8-1.9
	c1.1-1.4,2.4-2.7,1.1-4.7c-1.1-1.8-2.6-1.6-4.2-1c-2.3,0.9-3.5-0.3-4.1-2.1c-0.9-2.9-2.3-5.2-4.4-7.5c-2.4-2.6-0.2-4.1,2.6-4.2
	c6.2-0.2,12.4-0.4,18.6-0.5c5.5,0,11,0.3,16.5,0.2c4.6-0.1,7,1.6,7,6.4c0,1.5-0.3,3.5,1.6,4.1c1.7,0.6,3-0.7,4.1-1.9
	c1.2-1.3,2.6-2.5,3.5-3.9c2.5-4,6.9-5.8,11.1-4.2c3.2,1.2,2.6,3.9,2.6,6.3C440.4,108.1,440.4,125.3,440.5,142.5
	C440.4,142.5,440.5,142.5,440.5,142.5z M398.9,124.6c1.8-0.3,3.1-1.3,3-3.1c-0.1-1.6-1-3.3-2.9-3.2c-2,0.1-3.2,1.7-3.3,3.5
	C395.6,123.9,397.1,124.6,398.9,124.6z M566.1,91.2c-2,0.5-2.9,1.9-2.5,3.5c0.8,2.8,3.2,4.2,5.9,4.5c1.5,0.2,2.1-1.3,1.7-2.6
	C570.5,94,568.8,92.1,566.1,91.2z"/>
<path class="st0" d="M1785.9,84.3c42.7,0,85.4,0,128,0.1c3,0,7.3-1.4,8.7,1.9c1.5,3.3-2.9,5.1-4.6,7.6c-0.4,0.6-0.9,1.1-1.5,1.5
	c-10.6,7.6-12.6,18-12.4,30.6c0.6,40.5-0.1,81.1,0.4,121.7c0.2,13.4-2.9,25.9-6.1,38.6c-3.2,12.5-6.4,25-9.8,37.4
	c-1,3.6-1.8,7.8-6.9,8.2c-0.3,0-0.8,0.3-0.9,0.5c-2.8,6.9-8.8,5.3-14.1,5.3c-9.4,0.1-18.8,0-28.2-0.1c-5.7-0.1-6.9-1.3-5.3-6.8
	c4.9-16.9,7.1-34.5,13.4-51c1.9-4.9,2-10.7,3.4-16c0.8-3.1,1.2-6.3,4.1-8.4c1.6-1.2,1.6-2.8,0.2-4.1c-3.5-3.3-3.4-7.5-3.4-11.8
	c0-29.9,0-59.9-0.1-89.8c0-9-0.1-9.1-9.2-9.1c-57.2,0-114.4,0-171.6-0.1c-15.3,0-13.8,1.3-13.9-13.6c0-5.1-0.4-10.3-0.2-15.4
	c0.3-7-4.2-12.3-6.4-18.4c-2.8-7.9-2.4-9,6.1-9C1699.1,84.2,1742.5,84.3,1785.9,84.3C1785.9,84.3,1785.9,84.3,1785.9,84.3z"/>
<path class="st0" d="M1922.7,388.8c-2.7-1.7-0.2-5.2-3.4-4.9c-2.4,0.2-5,1-5.1,4.3c-0.1,2.6-2,3.1-4.1,3.1
	c-13.8,0.1-27.6,0.1-41.4,0.2c-4.8,0-5.4-3.8-6.8-6.9c-0.6-1.4-0.4-3.4-2.5-3.6c-2-0.2-2.9,1.7-3.4,3c-2.5,7.3-8,8.2-14.7,7.7
	c-6-0.5-12-0.2-18.1-0.1c-3.3,0-5.6-1.1-7.1-4.3c-3.4-7.5-11.7-6.1-16.5-3.6c-1,0.5-1.6,1.6-1.5,2.6c0.4,4.8-2.4,5.4-6.3,5.4
	c-26.6-0.1-53.1-0.2-79.7-0.1c-3.7,0-5.4-2.9-8.1-3.9c-2.1-0.8-3,4.7-7,4c-3.8-0.6-7.8-0.1-11.7-0.2c-1.4,0-3.3,0-4-0.9
	c-3-3.4-5.5-5-8.9-0.4c-1,1.4-2.9-0.2-3.9-1.6c-9.8-13-19.1-26.2-27.7-40c-2.6-4.1-1.7-5.6,3.4-5.7c8.1-0.3,16.3-0.2,24.4-0.2
	c10,0,10,0,10-9.9c0-28,0.2-56,0-83.9c0-5.8,1.8-9.4,7.3-12c12-5.6,23.7-11.9,35.6-17.7c6.3-3.1,7.4-2.3,7.4,4.6
	c0.1,34.5,0,69.1,0.2,103.6c0.1,17.4-1.8,15.1,14.9,15.1c18,0,16,2.7,16.1-16c0.1-11.9,0.1-23.7,0.1-35.6c0-2.7-0.1-5.6,4.1-5.1
	c1.4,0.2,3.1,0.2,3.5-1.6c0.5-2.1-1.1-3.7-2.7-4c-5.3-1.1-5-5-5-8.9c0-8.3,0.1-16.6,0-25c-0.1-4.4,1.3-7.4,5.7-9
	c2.8-1,5.3-2.8,8.1-3.9c3.7-1.5,7.4-3.1,11.6-0.8c1.7,0.9,4.2,0.8,6.2,0.7c3-0.2,5.1-1.7,2.7-4.8c-2.3-3-0.7-4.3,1.6-5.7
	c3.9-2.3,8.2-6.6,12.3-4.8c4.1,1.8,1.8,7.7,2.1,11.7c0.3,3.5,0,7.1,0,10.6c0,3.2,0,5.9-4.3,7.3c-3.6,1.2-1.7,4.3,0.8,5.3
	c3,1.2,3.4,3.1,3.4,5.8c0,13.3,0.8,26.6-0.3,39.8c-0.7,8.7,0.9,17.1,0.3,25.6c-0.2,2.9-0.4,5.3-2.8,7.6c-2.1,2-4,5.1,0.6,7.1
	c1.7,0.7,2.1,2.3,2.8,3.7c0.8,1.6,2.2,2.4,3.9,1.7c5.3-2.3,10.8-1.5,16.3-1.6c20.5-0.1,41.1,0,61.6,0.2c6.4,0,6.6,0.4,5.6,6.5
	c-0.7,4,0.3,7.5,4.2,8.7c4.5,1.4,6.2-2.9,8.6-5.5c0.3-0.3,0.3-1,0.5-1.5c0.7-2.1,0.5-5.4,3.4-5.2c3.4,0.2,7.1,2.6,7.4,5.9
	C1924.2,363.9,1924.5,376.2,1922.7,388.8z M1866.2,368.1c-0.2-3.1-1.3-5.5-4.5-5.5c-2.5,0-3.4,2.3-3.4,4.5c0.1,2.9,1.3,5.2,4.6,5.2
	C1865.6,372.4,1866.2,370.3,1866.2,368.1z M1885.8,369.7c-2.8-1.8-5.8-0.4-8.4-1.6c-1.2-0.5-2.5-2-3.8-0.5c-1,1,0,2.3,0.2,3.5
	c0.4,2.1,2.1,2.1,3.7,1.9C1880.6,372.8,1883.2,371.6,1885.8,369.7z M1659,349.6c-2.4,0.1-4.3,0.7-4,3.6c0.2,2,0.2,4.9,3,4.7
	c2.6-0.2,5.3-1.6,5.3-4.8C1663.5,350.5,1661.4,349.6,1659,349.6z M1771.5,301.7c1.7-0.5,4.5,0,4.5-3.1c0-2.3-1.7-3.5-3.9-3.3
	c-2.4,0.2-3.7,2.2-4,4.3C1767.7,302.2,1770,301.4,1771.5,301.7z"/>
<path class="st0" d="M852.9,84.2c39.3,0,78.6,0,118,0c9.8,0,10.7,0.8,10.7,10.5c0,54.2,0,108.4,0,162.6c0,10.8-4.3,20.7-6.9,31
	c-0.7,2.8-3.2,4.6-5.8,5.9c-15.6,7.4-31.2,14.9-46.9,22.2c-6.3,2.9-7.9,1.7-6.3-5.2c3.1-13.6,6.5-27.2,10.1-40.6
	c1.7-6.6,2.8-13.1,2.8-19.9c0-33.8,0-67.7-0.1-101.5c0-8.2-0.2-8.4-8.3-8.4c-57.9,0-115.8,0-173.8,0c-12.8,0-13.1,0-12.7-13
	c0.4-11.8-0.3-23.1-6.1-34c-4.2-7.8-2.8-9.3,6.4-9.3c39.7-0.1,79.4,0,119,0C852.9,84.3,852.9,84.3,852.9,84.2z"/>
<path class="st0" d="M208.2,280.1c39.7,0,79.4,0,119,0.1c3.2,0,7.5-1.4,9.3,1.9c1.7,3.1-1.7,5.8-3.6,8.3c-3.8,5.2-5.3,10.8-5.2,17.4
	c0.3,25.9,0.1,51.7,0.1,77.6c0,7.9-0.3,8.1-8,8.1c-44.6,0-89.3-0.1-133.9,0.2c-6.8,0-11.8-1.7-14.3-8.3c-0.5-1.2-1.2-2.5-2.5-2.5
	c-10-0.4-18.8-7.6-29.2-5.1c-1.4,0.3-3.4,0-4,0.8c-4.8,6-12.3,7.7-18.3,11.8c-6.7,4.6-17.8,4.6-23.5-1c-17.3-16.7-14.2-8.8-14.4-33
	c-0.1-22.7,0-45.3,0-68c0-8.1,0.3-8.3,8.4-8.3C128.1,280,168.1,280,208.2,280.1C208.2,280.1,208.2,280.1,208.2,280.1z M201.6,311.1
	C201.6,311.1,201.6,311.1,201.6,311.1c-21.8-0.1-43.5-0.1-65.3,0c-8.2,0-8.5,0.3-8.4,8.2c0,12.4,0.3,24.8,0.1,37.2
	c-0.1,5.1,2,7,6.8,6.9c6-0.1,12,0,18.1,0c38.1,0,76.1,0,114.2-0.1c6.4,0,7.4-1,7.4-7.5c0.1-12.2,0.1-24.4,0-36.6
	c-0.1-7.2-0.8-8-7.9-8C244.8,311,223.2,311.1,201.6,311.1z"/>
<path class="st0" d="M1155.6,262.6c26.6,0.2,53.2,1.4,79.2,7.1c17.2,3.8,33.1,10.7,43.7,25.9c3.1,4.5,5,9.4,5.1,14.9
	c0.1,11.3,0.1,22.7,0,34c-0.1,11.4-6.9,19.1-15.1,25.6c-11.9,9.3-26,14.2-40.3,18.5c-1.8,0.6-3.9,0.4-5.8,0.6
	c-2.8,0.2-5.1-0.2-4.6-3.9c0.1-0.8,0-1.9-1.2-2c-1.1,0-1.6,0.7-1.7,1.7c-0.7,5.3-3.7,6.4-8.3,4.6c-0.5-0.2-1.2-0.3-1.6-0.1
	c-6.8,4.6-13,0.5-19.5-1.1c-6.6-1.7-12.8,1-18.8,3.2c-3.4,1.2-6.5,2.4-10.1,2.4c-22.2,0.3-44.2-1.3-66.2-4.4
	c-19.6-2.8-36.8-10.9-52.2-23.1c-8.8-6.9-13-16.1-12.4-27.4c0.3-6,0.4-12.1-0.1-18.1c-1.6-18.9,7.8-31.1,23.3-40.1
	c16.4-9.6,34.3-14,53.1-15.5C1119.9,264.1,1137.7,262.1,1155.6,262.6z M1155.4,356.5c7.8,0,15.6,0.2,23.4-0.1
	c8-0.3,15.9-1.2,23.9-1.5c11.8-0.4,22.6-4,32.7-9.8c11.6-6.8,12.7-25.2,2.1-33.5c-7.3-5.7-15.8-8.5-25-9.3
	c-38.6-3.3-77.2-2.9-115.7,0.2c-10.4,0.8-20,4.7-27.3,12.7c-6.7,7.3-4.8,23.4,3.3,29c8.6,6,18.3,9.7,28.6,10.4
	C1119.3,355.7,1137.3,357.6,1155.4,356.5z"/>
<path class="st0" d="M1153.9,83.1c40.9,0,81.8,0,122.7,0c7.9,0,8.5,0.5,8.6,8.4c0.1,7.8,0.1,15.6,0,23.4c0,7.9-0.2,8.1-8,8.1
	c-19.5,0-39,0-58.4,0c-43.2,0-86.4,0-129.6,0c-8.5,0-8.5,0.1-8.6,8.5c0,4.8,0.2,9.6,0.1,14.3c-0.1,4.1,1.9,5.8,5.8,5.7
	c2.5-0.1,5,0,7.4,0.1c52.6,0,105.2,0,157.8,0.1c2.9,0,7.3-1.2,8.1,2c1,3.7-3.7,4.6-6.4,5.9c-20.7,9.9-41.5,19.6-62.3,29.5
	c-6.8,3.3-13.8,5-21.5,4.9c-38.6-0.2-77.2-0.2-115.8,0c-6.1,0-10.9-1.5-15-6.1c-4.2-4.8-9.1-8.9-13.7-13.3c-2.8-2.6-3.8-5.7-3.8-9.5
	c0.1-24.4,0-48.9,0-73.3c0-7.5,1-8.6,8.7-8.6C1071.4,83,1112.6,83.1,1153.9,83.1z"/>
<path class="st0" d="M887,391.3c-35.6,0-71.2,0-106.8-0.1c-1.8,0-5.5,2-5.2-3.2c0.1-1.9-3.1-0.8-4.4,0c-5.6,3.5-11.7,3.6-17.9,3.7
	c-3.5,0.1-6.2-1.2-8.1-4.1c-9-13.1-18.1-26.2-27-39.4c-2.7-4-2.1-5.2,3-5.2c18.6-0.3,37.2-0.3,55.8-0.4c6.9,0,13.8,0,20.7,0
	c8.2-0.1,8.4-0.3,8.4-8.3c0-27.8,0.2-55.6-0.2-83.4c-0.1-7.2,1.6-11.8,8.7-14.9c12.3-5.4,24.2-11.7,36.2-17.8
	c4.4-2.2,5.8-0.6,5.9,3.6c0,10.8,0,21.6,0,32.4c0,27.3,0,54.5,0.2,81.8c0,7.7,5.6,11.4,12.9,8.5c3.5-1.4,7.2-1.8,10.9-1.8
	c37.2,0,74.4-0.1,111.6,0c9.3,0,9.4,0.1,9.4,9.5c0,10.6,0,21.3-0.1,31.9c-0.1,7-0.6,7.5-7.7,7.5c-35.4,0-70.8,0-106.3,0
	C887,391.5,887,391.4,887,391.3z"/>
<path class="st0" d="M683.7,215.4c0,40.5-0.1,81.1,0.1,121.6c0,5.4-1.7,8.9-6.3,11.7c-13.8,8.3-27.3,17-41,25.3
	c-3.2,2-6.6,6.2-10.2,4.1c-3.6-2-2-7.1-2.1-10.8c-0.1-26.6,0-53.1,0-79.7c0-52.9,0-105.9,0-158.8c0-8.7,0.4-9.2,9.2-11.9
	c2.7-0.8,3.2-3.1,3.6-5.3c0.3-1.8-1.1-2.3-2.4-1.3c-4.9,4.2-5.6-2-8.1-3.4c-2.9-1.6-2.7-5.1-1.2-7.6c2.2-3.7,4.2-7.2,4.3-11.7
	c0-2.1,1.8-3.1,4.1-3.4c11.9-1.5,23.9-0.8,35.9-1c1.9,0,3.9,0,5.8,0c7.4,0.1,8.3,1,8.4,8.2c0.1,19.1,0.1,38.2,0.1,57.4
	C683.8,171.2,683.7,193.3,683.7,215.4C683.7,215.4,683.7,215.4,683.7,215.4z"/>
<path class="st0" d="M1471.4,265.9c38.8,0,77.6,0,116.4,0c7.8,0,8.3,0.6,8.3,8.5c0,35.6,0,71.2,0,106.8c0,8.4-0.4,8.8-8.5,8.8
	c-10.6,0-21.3,0-31.9,0c-7.1,0-8-0.9-8-8c-0.1-22.1,0-44.3-0.1-66.4c0-8.9-0.1-8.9-9.3-8.9c-53.9,0-107.7-0.1-161.6,0.1
	c-6.8,0-11.1-1.6-14.2-8.2c-4.1-8.8-9.6-16.9-14.3-25.5c-3.1-5.6-2.5-6.8,3.9-6.8c30.5-0.2,60.9-0.2,91.4-0.3
	C1453,265.9,1462.2,265.9,1471.4,265.9z"/>
<path class="st0" d="M1437.7,249.4c-27.5-1-52.1-7.5-72.9-25.4c-25.4-22-25-52.5,1.4-73.6c23.5-18.7,50.6-25.6,80.1-23.4
	c24.9,1.9,47.4,10.1,65.6,27.7c22,21.4,20.7,49.2-2.9,69.2C1488.2,241.5,1463.7,248.8,1437.7,249.4z M1438.6,214.6
	c12.8-0.7,24.8-3.7,33.9-13.7c6.9-7.6,6.4-17.1-1.2-24c-15-13.8-38.6-16.8-56.2-6.7c-7.6,4.3-14.3,10.2-13.8,19.8
	c0.5,9.7,7.1,15.4,15.3,19.5C1423.5,212.9,1430.7,215,1438.6,214.6z"/>
<path class="st0" d="M470,391.8c-20.9,0-41.8-0.1-62.7,0.1c-4.8,0-8.5-1.5-11.6-5.1c-4-4.5-8.1-8.9-12.4-13.1c-3.7-3.6-5-7.7-5-12.8
	c0.1-48.5,0.1-97,0-145.5c0-11.2,0-22.3,0-33.5c0-2.2-0.6-5.3,1.7-6.2c2.5-0.9,3.9,2,5.1,3.7c11.7,15.5,23.3,31.1,35,46.7
	c4.3,5.8,8.5,11.7,13.1,17.3c3.9,4.8,5.5,9.8,5.4,16.1c-0.3,27.4-0.1,54.9-0.2,82.3c0,1.1,0,2.1,0,3.2c0.2,8.3,0.6,8.8,8.7,8.8
	c13.8,0.1,27.6,0.1,41.4,0.1c7.3,0,14.5,0.1,21.8,0c3.4,0,6,1.1,8.1,4.1c6.5,8.8,13.2,17.5,19.8,26.2c1.3,1.7,3,3.5,2,5.7
	c-1,2.4-3.7,1.7-5.7,1.7C513.2,391.8,491.6,391.8,470,391.8C470,391.8,470,391.8,470,391.8z"/>
<path class="st0" d="M188.5,85.7c2.1-5,5.2-6.1,9.1-4.5c3,1.2,5.5-0.9,8.3-0.6c2.4,0.3,5.4-0.4,6.5,2.4c1,2.6-1.9,3.4-3.2,4.9
	c-0.3,0.4-0.5,0.9-0.9,1.5c4.7,1.8,6.8,6,8.9,9.9c2.1,4,4.3,6.1,8.6,2.8c2.9-2.2,6.5-1.8,9.8-1.4c9.7,1.2,17.2-3.7,25-8
	c1.8-1,3.3-4.4,6-0.9c0.8,1,2.3,0.4,2.7-0.5c1.3-3.1,4.8-4.4,6.3-6.9c1.8-3.1,4-3.1,7-3.3c13.1-0.8,26.2-0.7,39.3-0.7
	c7.5,0,10,1.5,10.5,9c0.6,8.5,0.1,17,0.1,25.5c0,2.8-1.5,4.2-4.3,4.2c-5.1,0-10.3,0.3-15.4,0.1c-6.1-0.2-8-2.3-8.9-8.5
	c-0.2-1.1-0.7-1.6-1.6-1.7c-2.1-0.3-4.3-0.8-6,0.9c-0.5,0.5-1,1.2-1.1,1.8c-1.2,7.2-6.3,7.9-12.3,7.5c-4.1-0.2-8.1-0.1-12.2-0.2
	c-3.6,0-7.3,0.4-7.9-4.7c-0.2-1.9-1.9-1.9-3.3-0.8c-3,2.4-6.6,2.2-10.1,2.2c-8.3-0.1-16.7-0.2-25-0.2c-3.5,0-7.4-0.3-8.5,4.4
	c-0.8,3.6,2.2,8.5,6.2,10.1c5.6,2.3,11.2,0.8,16.6-0.8c4-1.2,8.7-0.1,9.4,3.3c0.8,4.2-2.8,6.2-6,7.4c-2.8,1.1-6.1,1.1-10.4,1.9
	c4.3,2.5,7.7,4.2,10.8,6.1c3.1,1.9,6.3-0.6,8.8-3c5.4-5.2,5.5-5.2,11.1-0.2c17,15.2,34,30.5,51,45.8c1.2,1.1,3.5,2.1,2.5,4.2
	c-0.7,1.5-2.8,1.3-4.3,1.3c-13.3,0.1-26.6,0.1-39.9,0.1c-2.7,0-4.7-1.3-6.5-3.1c-14.8-14-29.6-28-44.3-42c-2.1-2-3.9-3.6-1.7-7.1
	c1.8-2.9-3-7.2-6.9-6c-3,1-5.1,0.5-7.2-1.4c-2.4-2.2-4.4-1.3-6.5,0.6c-4,3.7-8.1,7.4-12.2,11c-2,1.8-3.2,2.7-5-0.8
	c-3.4-7-9-9.8-15.2-8.2c-3.1,0.8-6.4,1.9-2.4,5.8c2.7,2.6,1.1,3.8-1.5,4.9c-2,0.9-4.7-0.2-6.3,2c1.5,2,3.6,1.4,5.4,1.6
	c2,0.2,3.8,0.5,5.4,2c4.7,4.4,4.9,6.7,0.3,11.3c-6.6,6.6-13.5,13.1-20.2,19.6c-2.4,2.3-5,3.8-8.5,3.5c-2.8-0.2-5.3,0.6-6.6,3.5
	c-1.1,2.3-3.2,2.6-5.4,2.6c-11.3,0-22.7-0.1-34-0.1c-1.4,0-3.2,0.2-3.7-1.4c-0.5-1.8,1.5-2,2.7-2.6c0.8-0.4,1.7-0.8,2.1-1.5
	c9.1-14.8,24.3-23.5,36-35.6c2.1-2.2,4.6-2,7.4-1.8c1.6,0.1,5.2,0.5,2-3c-1.6-1.7-0.2-3,0.9-4c6.2-5.8,12.2-11.8,18.6-17.4
	c3-2.6,7-3.3,11-3.5c1.6-0.1,4,0,4-1.7c-0.1-4.8,3.1-6.5,6.1-9.3c6.5-6.1,3.5-17.5-4.8-20.4c-3.8-1.4-7.2,0.1-9.5,3
	c-5.2,6.4-12.1,5-18.7,4.4c-3.5-0.3-4.6-5.2-1.8-8.6c1.9-2.3,3.5-4.3,3.4-7.4c-0.1-2.7,1.9-3.8,4.3-3.5c8.9,1,17.6-0.6,26.5-0.9
	C182.9,80.2,187,80,188.5,85.7z M293.3,106.7c3.1,0,6.4-0.3,6.4-4.4c0-3.3-2.8-5.3-5.5-6.5c-2.5-1.2-5.2-1-7.3,1.2
	c-1.5,1.6-3,3.5-1.8,5.6C286.8,105.6,290,106.3,293.3,106.7z M214.8,113.4c-5.8-4.4-10.9-4-12.9,0.2c-0.7,1.5-0.7,3.1,0.7,4.3
	c1,0.9,2.1,0.6,2.7-0.3C207.4,114.6,210.6,113.9,214.8,113.4z M261.5,158.1c-0.1-1.6-0.9-2.6-2.5-2.8c-1.5-0.1-2.9,0.2-2.8,2.1
	c0.1,1.5,1,2.6,2.5,2.9C260.4,160.7,261.1,159.5,261.5,158.1z M207.3,121.4c-0.8,1.2-0.6,2.4-0.1,3.5c0.8,1.6,2,3,4,2.9
	c0.6,0,1.5-0.6,1.6-1.1c0.4-1.9-1.3-2.7-2.4-3.7C209.5,122.3,208.8,121.1,207.3,121.4z"/>
<path class="st0" d="M215.4,213.3c0.2,5.7,2.4,9,8.8,8.2c1.5-0.2,3.1,0.3,4.5,1.3c6.3,4.5,10.5,3.7,17.7,0.2
	c5.3-2.6,11.8-4,17.8-4.1c25.7-0.5,51.4-0.2,77.1-0.4c5.3,0,7.4,2,7.2,7.2c-0.2,7.1-0.1,14.2-0.1,21.3c-0.1,7.1-0.8,7.9-8,7.9
	c-53,0-105.9,0.1-158.9,0.1c-34,0-68-0.2-102,0c-5.3,0-9.7-1.3-13.7-4.5c-3.6-2.8-7.3-5.6-11-8.3c-3.5-2.6-3.4-6.3-3.5-10.1
	c-0.2-13.6-0.2-13.5,13.1-13.5c17.7,0,35.4,0.1,53.1,0.1c3.9,0,7.3,0.3,9.1,4.7c1,2.5,3.5,3.3,6.2,3c2.7-0.3,4-1.7,4.4-4.4
	c0.4-3.2,3.1-3,5.3-3.1c8.3-0.1,16.7-0.3,25-0.1c5.4,0.2,7.4-2.1,7.1-7.3c-0.2-2.6,0.2-5.3,0.2-8c0-2.7,0.6-4.9,3.7-5.5
	c0.6-0.1,1.6-0.6,1.7-1.1c1-4,3.6-4.9,7.5-5c4.6-0.1,8.2,1,11,4.8c3.2,4.3,7.9,7.5,9.2,13.4c0.8,3.7,5.2,2.2,7.7,3.4L215.4,213.3z"
	/>
<path class="st0" d="M1546.7,167.5c0-24.8,0-49.6,0-74.3c0-7.9,0.6-8.6,8.4-8.7c11.3-0.2,22.7,0.1,34-0.1c5.2-0.1,6.9,2.2,6.8,7
	c-0.1,16.3,0,32.6,0.1,48.9c0,10.7,0,10.7,10.4,10.7c5.5,0,11,0.1,16.5,0.1c4.3,0,6.5,1.9,6.4,6.4c-0.1,8.7-0.1,17.3,0,26
	c0,4.4-1.9,6.5-6.4,6.5c-6.2,0-12.4,0.1-18.6,0.3c-7.2,0.2-7.8,0.6-7.9,8c-0.1,14.9-0.1,29.7-0.1,44.6c0,7-0.5,7.6-7.5,7.7
	c-11.7,0.1-23.4-0.2-35,0.1c-5.4,0.1-7.2-2.2-7.1-7.2c0.1-18.6,0-37.2,0-55.8C1546.8,181,1546.8,174.2,1546.7,167.5
	C1546.8,167.5,1546.7,167.5,1546.7,167.5z"/>
<path class="st0" d="M1188.4,252.2c-34.4,0-68.7,0-103.1,0c-2.5,0-5-0.1-7.4-0.3c-1.5-0.1-3.5,0.2-3.9-1.9c-0.3-2,1.4-2.6,2.9-3.3
	c6.2-3,12.3-6.1,18.6-9c17.6-8.3,35.2-16.4,52.8-24.8c5.7-2.7,11.5-4.2,17.9-4.2c42.9,0.2,85.7,0.1,128.6,0.1c7.5,0,8.2,0.7,8.2,8.2
	c0,9,0.1,18.1,0,27.1c0,7.5-0.6,8.1-8.3,8.1C1259.3,252.2,1223.8,252.2,1188.4,252.2C1188.4,252.2,1188.4,252.2,1188.4,252.2z"/>
<path class="st0" d="M1444.7,119.7c-26.2,0-52.4,0-78.6,0c-1.8,0-3.6,0-5.3-0.3c-1.8-0.3-4.4,0.2-4.9-2.2c-0.5-2.3,1.8-3.1,3.5-4
	c5.6-2.7,11.1-5.5,16.7-8.2c24.1-11.4,48.3-22.7,72.5-34c7.6-3.5,9.1-2.8,8.9,5.6c-0.1,5.9,2.4,6.9,7.5,6.9
	c20.5-0.1,41.1,0.2,61.6,0.1c5.1,0,7,2,6.8,7c-0.2,6.9,0,13.8-0.1,20.7c0,7.2-0.8,8-7.9,8c-21.4,0.1-42.9,0-64.3,0
	c-5.5,0-11,0-16.5,0C1444.7,119.6,1444.7,119.7,1444.7,119.7z"/>
<path class="st0" d="M1074.8,208.7c19.5,0,38.9,0,58.4,0.1c2.5,0,6.3-1,7,2.1c0.7,3.1-3.2,3.6-5.5,4.7
	c-23.8,11.2-47.6,22.3-71.2,33.7c-4.3,2.1-8.6,2.7-13.1,2.8c-8.8,0.1-17.7,0.2-26.5,0.1c-6.9,0-7.6-0.8-7.7-7.5
	c0-1.8-0.2-3.5-0.1-5.3c0.6-8.3-1-16-5.5-23.3c-3.4-5.5-2.2-7.3,4.3-7.3C1034.8,208.7,1054.8,208.8,1074.8,208.7
	C1074.8,208.8,1074.8,208.8,1074.8,208.7z"/>
<path class="st0" d="M1242.6,193.8c-12.9,0-25.8,0-38.7,0c-2,0-4.8,0.5-5.4-2.1c-0.6-2.5,2.1-3.5,3.9-4.3
	c24.3-11.5,48.6-22.8,72.9-34.2c1.4-0.7,3-1,4.6-1.2c6-0.9,7.7,0.5,7.8,6.6c0.1,9.6-0.1,19.1,0.1,28.7c0.1,4.9-1.8,6.9-6.9,6.8
	c-12.7-0.3-25.5-0.1-38.2-0.1C1242.6,193.9,1242.6,193.8,1242.6,193.8z"/>
<path class="st0" d="M132.5,90.4c0.9,5.6,1.1,11.6,3.8,17c0.1,0.1,0,0.4-0.1,0.5c-0.4,0.6-0.8,1.6-1.2,1.6
	c-6.4,0.4-4.5,11.3-12.8,9.7c-5.6-1.1-11.6,0.8-17.2-1.7c-2.5-1.1-4.8,1.7-7.6,1.6c-6-0.2-12-0.2-18-0.3c-2.6,0-3.8-1.5-4-4
	c-0.2-3.9-0.5-7.8,2.7-10.9c1.5-1.5,2.2-3.1,0.8-5.1c-1.7-2.5-1.3-5.2,0.7-7.3c3.2-3.4,1.1-4.4-2-5.3c-0.7-0.2-1.4-0.2-2.1-0.4
	c-1.7-0.5-4-0.9-3.7-3c0.3-2.3,2.7-1.7,4.4-1.9c7.2-0.6,14.4-0.4,21.7,0.3c5.6,0.6,11.2-1.1,16.9-0.7c3.4,0.3,6.1,0.8,4.4,5.3
	c-0.4,1.1-0.2,2.5-0.1,3.7c0.3,3.3,1.4,6.8,4.8,7.5c3.4,0.7,5.2-2.2,6.4-5.2C130.6,91,130.8,90.3,132.5,90.4z"/>
<path class="st0" d="M1407.6,84.9c-3.5,3.5-7.6,5-11.5,6.9c-17.7,8.7-35.6,17.3-53.7,25.1c-1.5,0.6-2.9,1.2-4.4,1.8
	c-4,1.5-6.3,0.2-6.4-4.1c-0.1-8.7-0.1-17.4-0.1-26c0-3,1.6-4.5,4.6-4.6c4.8-0.1,9.6-0.3,14.3-0.3c17.2,0,34.4,0,51.5,0.1
	C1403.6,83.8,1405.5,83.2,1407.6,84.9z"/>
<path class="st0" d="M936.6,337.6c-6.2,0-12.4,0.1-18.6,0c-2.7-0.1-6.6,0.7-7.4-2.6c-1-3.7-0.4-7.8,2.9-10.7
	c1.4-1.3,3.1-2.5,4.8-3.3c15.6-7.3,31.3-14.7,47-21.8c5-2.3,6.5-1.2,5.3,3.9c-2.3,10.2-5.1,20.2-7.8,30.3c-0.9,3.2-3.5,4.2-6.6,4.2
	C949.7,337.6,943.2,337.6,936.6,337.6C936.6,337.6,936.6,337.6,936.6,337.6z"/>
<path class="st0" d="M1457.3,58.2c0.6,3.1-1,4.8-3.7,6.2c-12.9,6.5-25.9,12.8-39.1,18.7c-3.8,1.7-5.6,0.9-5.4-3.5
	c0.1-2.6-0.2-5.3,0-7.9c0.4-4.8-1-8.9-4.2-12.6c-3.3-3.9-2.4-5.8,2.9-6c9.5-0.4,19.1-0.2,28.6-0.3c5.3,0,10.6,0.1,15.9,0.2
	C1455.9,52.9,1457.7,54.5,1457.3,58.2z"/>
<path class="st0" d="M215.5,213.4c-0.2-4-0.8-8,1.2-11.9c1.6-3.1-1.2-2.9-3-3.2c-1.9-0.4-4.8,0.4-4.8-2.8c0.1-3.5,3-3.3,5.5-3.4
	c12.5-0.6,12.5-0.6,12.4,11.4c0,8.2,0,8.2-8.4,9.1c-1,0.1-2.1,0.4-3.1,0.6C215.4,213.3,215.5,213.4,215.5,213.4z"/>
<path class="st0" d="M156.9,115.5c0.1,1.3-0.3,2.3-1.7,2c-2.4-0.5-4.8-1.5-5.6-4c-0.6-1.7,0.9-2,2.2-2
	C154.8,111.2,156.2,113,156.9,115.5z"/>
</svg>
